<svg xmlns="http://www.w3.org/2000/svg" xmlns:xlink="http://www.w3.org/1999/xlink" width="30" height="30" viewBox="0 0 30 30"><defs><clipPath id="a"><rect width="30" height="30" transform="translate(0 0)" fill="none"/></clipPath></defs><g transform="translate(0 0)" clip-path="url(#a)"><path d="M26.348,30H3.652A3.652,3.652,0,0,1,0,26.348V3.652A3.652,3.652,0,0,1,3.652,0h22.7A3.652,3.652,0,0,1,30,3.652v22.7A3.652,3.652,0,0,1,26.348,30" transform="translate(0 0)" fill="#f1cb22"/><rect width="3.507" height="8.825" transform="translate(23.578 5.275)" fill="#1a1818"/><rect width="3.507" height="10.704" transform="translate(18.462 3.396)" fill="#1a1818"/><rect width="3.507" height="5.776" transform="translate(13.346 8.323)" fill="#1a1818"/><rect width="3.507" height="7.093" transform="translate(8.23 7.007)" fill="#1a1818"/><rect width="3.507" height="2.973" transform="translate(3.113 11.126)" fill="#1a1818"/><path d="M63.95,64.324H52.576q-.411,0-.721.007c-.207,0-.389.014-.544.028a3.228,3.228,0,0,0-.419.064,2.817,2.817,0,0,0-.342.1,2.231,2.231,0,0,0-1.2.968,3.005,3.005,0,0,0-.449,1.634,2.9,2.9,0,0,0,.234,1.152,2.474,2.474,0,0,0,.657.913,2.252,2.252,0,0,0,.94.473,5.772,5.772,0,0,0,1.421.149h1.74a3.855,3.855,0,0,1,.6.043,1.33,1.33,0,0,1,.416.128,1.079,1.079,0,0,1,.446.41,1.128,1.128,0,0,1,.162.594.94.94,0,0,1-.467.863,1.43,1.43,0,0,1-.508.169,5.462,5.462,0,0,1-.891.056h-4.3v1.684h4.738q.523,0,.9-.022t.672-.063a3.028,3.028,0,0,0,.5-.113,1.566,1.566,0,0,0,.382-.184,2.381,2.381,0,0,0,.877-.99,3.125,3.125,0,0,0,.324-1.414,3.67,3.67,0,0,0-.19-1.174,2.279,2.279,0,0,0-.516-.891,2.248,2.248,0,0,0-1.03-.6,6.192,6.192,0,0,0-1.65-.177H52.854a6.965,6.965,0,0,1-.74-.028,1.473,1.473,0,0,1-.444-.128.85.85,0,0,1-.4-.353,1.1,1.1,0,0,1-.14-.566,1.135,1.135,0,0,1,.169-.629.743.743,0,0,1,.467-.331c.075-.019.141-.033.2-.043s.126-.016.212-.022l.317-.014c.128,0,.305-.007.531-.007h5.789v7.749h2.022V66.006H63.95Z" transform="translate(-36.865 -48.493)" fill="#1a1818"/><path d="M19.99,68.905a2.255,2.255,0,0,0-1.03-.6,6.205,6.205,0,0,0-1.651-.177H15.8a7.016,7.016,0,0,1-.741-.028,1.5,1.5,0,0,1-.444-.128.848.848,0,0,1-.395-.353,1.091,1.091,0,0,1-.142-.566,1.127,1.127,0,0,1,.17-.63.742.742,0,0,1,.466-.331c.075-.02.142-.033.2-.043s.128-.016.212-.022.191-.009.319-.014.3-.007.531-.007h4.213V64.324H15.52q-.409,0-.721.007c-.208,0-.389.014-.545.028a3.207,3.207,0,0,0-.418.064,2.817,2.817,0,0,0-.342.1,2.237,2.237,0,0,0-1.2.968,3.006,3.006,0,0,0-.448,1.634,2.891,2.891,0,0,0,.233,1.152,2.471,2.471,0,0,0,.658.913,2.245,2.245,0,0,0,.94.473,5.767,5.767,0,0,0,1.421.148h1.739a3.861,3.861,0,0,1,.6.043,1.343,1.343,0,0,1,.418.128,1.072,1.072,0,0,1,.445.41,1.129,1.129,0,0,1,.162.594.941.941,0,0,1-.466.863,1.433,1.433,0,0,1-.51.169,5.443,5.443,0,0,1-.891.056H12.3v1.683h4.736q.523,0,.906-.022t.671-.063a2.981,2.981,0,0,0,.5-.113,1.567,1.567,0,0,0,.381-.184,2.366,2.366,0,0,0,.877-.99,3.111,3.111,0,0,0,.326-1.414A3.637,3.637,0,0,0,20.5,69.8a2.263,2.263,0,0,0-.514-.891" transform="translate(-8.929 -48.493)" fill="#1a1818"/></g></svg>