<svg xmlns="http://www.w3.org/2000/svg" xmlns:xlink="http://www.w3.org/1999/xlink" width="64.156" height="10.732" viewBox="0 0 64.156 10.732"><defs><clipPath id="a"><rect width="64.156" height="10.732" transform="translate(0 0)" fill="#fff"/></clipPath></defs><g transform="translate(0 0)" clip-path="url(#a)"><path d="M31.969,0H19.027q-.468,0-.821.008c-.236.006-.443.016-.619.031a3.716,3.716,0,0,0-.477.073,3.165,3.165,0,0,0-.389.113,2.541,2.541,0,0,0-1.367,1.1,3.423,3.423,0,0,0-.51,1.86A3.294,3.294,0,0,0,15.109,4.5a2.815,2.815,0,0,0,.748,1.038,2.562,2.562,0,0,0,1.07.538,6.57,6.57,0,0,0,1.617.168h1.98a4.39,4.39,0,0,1,.683.049,1.523,1.523,0,0,1,.474.145,1.231,1.231,0,0,1,.508.466,1.286,1.286,0,0,1,.185.676,1.07,1.07,0,0,1-.531.982,1.623,1.623,0,0,1-.579.193,6.28,6.28,0,0,1-1.014.064H15.358v1.916h5.391q.595,0,1.029-.025c.289-.016.545-.039.765-.072a3.406,3.406,0,0,0,.57-.129,1.765,1.765,0,0,0,.435-.209,2.709,2.709,0,0,0,1-1.126,3.558,3.558,0,0,0,.37-1.609A4.171,4.171,0,0,0,24.7,6.226a2.585,2.585,0,0,0-.587-1.014,2.554,2.554,0,0,0-1.172-.684,7.076,7.076,0,0,0-1.878-.2H19.343A7.945,7.945,0,0,1,18.5,4.3,1.68,1.68,0,0,1,18,4.151a.961.961,0,0,1-.45-.4,1.24,1.24,0,0,1-.16-.644,1.291,1.291,0,0,1,.193-.717.843.843,0,0,1,.531-.377c.085-.022.159-.038.225-.048s.144-.019.241-.025.217-.01.361-.016.347-.008.6-.008h6.588v8.818h2.3V1.914h3.54Z" transform="translate(-4.466 0)" fill="#fff"/><path d="M44.177,7.666V6.893a4.932,4.932,0,0,0-.145-1.365,1.7,1.7,0,0,0-.5-.8,2,2,0,0,0-.9-.462,6.827,6.827,0,0,0-1.512-.129H37.934v7.837h2.172V5.8h.624a1.476,1.476,0,0,1,1.076.306,1.654,1.654,0,0,1,.3,1.142v.419Z" transform="translate(-11.413 -1.246)" fill="#fff"/><path d="M54.475,5.976a2.646,2.646,0,0,0-.6-1.038,2.275,2.275,0,0,0-.924-.6,2.913,2.913,0,0,0-.365-.1c-.113-.021-.245-.039-.394-.056s-.333-.027-.547-.031-.483-.009-.805-.009H47.2V5.8H50.84a4.223,4.223,0,0,1,.805.065,1.137,1.137,0,0,1,.507.223.818.818,0,0,1,.257.436,2.886,2.886,0,0,1,.073.708H49.85a6.371,6.371,0,0,0-1.765.177,1.9,1.9,0,0,0-1.035.825,2.621,2.621,0,0,0-.394,1.435,2.478,2.478,0,0,0,.235,1.083,2.109,2.109,0,0,0,.668.81,1.865,1.865,0,0,0,.361.209,2.162,2.162,0,0,0,.466.129,5.614,5.614,0,0,0,.693.063c.274.012.619.017,1.038.017h4.538V7.569c0-.419-.012-.732-.033-.942a3.039,3.039,0,0,0-.146-.652M52.482,10.32H49.987a1.805,1.805,0,0,1-.893-.162.582.582,0,0,1-.266-.537.78.78,0,0,1,.122-.432.588.588,0,0,1,.345-.252.9.9,0,0,1,.113-.024c.031-.006.07-.01.113-.016a1.467,1.467,0,0,1,.169-.009h2.792Z" transform="translate(-14.037 -1.246)" fill="#fff"/><path d="M64.807,2.9H62.785a3.659,3.659,0,0,0-2.311.677,3.813,3.813,0,0,0-1.412,3.186,3.954,3.954,0,0,0,1.111,2.976,3.262,3.262,0,0,0,.587.474,3.09,3.09,0,0,0,.66.306,3.956,3.956,0,0,0,.812.169,9.987,9.987,0,0,0,1.031.048h3.716V0H64.807Zm0,6.179H63.246a1.859,1.859,0,0,1-1.473-.615,2.5,2.5,0,0,1-.538-1.7,2.321,2.321,0,0,1,.53-1.62,1.9,1.9,0,0,1,1.481-.584h1.561Z" transform="translate(-17.77 0)" fill="#fff"/><path d="M74.07,4.27a2.936,2.936,0,0,0-1.005.435,3.163,3.163,0,0,0-1.119,1.343,4.446,4.446,0,0,0-.41,1.907,3.863,3.863,0,0,0,1.416,3.283,3.141,3.141,0,0,0,1.118.579,5.92,5.92,0,0,0,1.52.161h2.865V10.32H75.815a4.348,4.348,0,0,1-.8-.057,1.284,1.284,0,0,1-.515-.22,1.219,1.219,0,0,1-.419-.448,1.927,1.927,0,0,1-.161-.708h4.538V7.231H73.917a2.525,2.525,0,0,1,.138-.691,1.035,1.035,0,0,1,.3-.444,1.12,1.12,0,0,1,.5-.232,3.669,3.669,0,0,1,.74-.065h2.865V4.141H75.429a6.07,6.07,0,0,0-1.359.129" transform="translate(-21.523 -1.246)" fill="#fff"/><path d="M89.079,7.666V6.893a4.931,4.931,0,0,0-.145-1.365,1.715,1.715,0,0,0-.5-.8,2.009,2.009,0,0,0-.9-.462,6.835,6.835,0,0,0-1.512-.129H82.836v7.837h2.172V5.8h.622a1.483,1.483,0,0,1,1.077.306A1.662,1.662,0,0,1,87,7.247v.419Z" transform="translate(-24.923 -1.246)" fill="#fff"/><path d="M9.269,5.213A2.565,2.565,0,0,0,8.1,4.529a7.059,7.059,0,0,0-1.879-.2H4.5A7.976,7.976,0,0,1,3.657,4.3a1.692,1.692,0,0,1-.505-.145.966.966,0,0,1-.45-.4A1.247,1.247,0,0,1,2.541,3.1a1.286,1.286,0,0,1,.194-.717.843.843,0,0,1,.531-.377c.085-.022.161-.038.225-.049s.145-.018.241-.024.217-.01.363-.016.346-.008.6-.008H9.491V0H4.182c-.31,0-.584,0-.82.008S2.92.024,2.741.039a3.58,3.58,0,0,0-.475.073,3.177,3.177,0,0,0-.389.113,2.547,2.547,0,0,0-1.368,1.1A3.421,3.421,0,0,0,0,3.186,3.293,3.293,0,0,0,.264,4.5a2.816,2.816,0,0,0,.749,1.038,2.566,2.566,0,0,0,1.07.538A6.566,6.566,0,0,0,3.7,6.242H5.678a4.387,4.387,0,0,1,.684.048,1.544,1.544,0,0,1,.475.145,1.223,1.223,0,0,1,.507.466,1.284,1.284,0,0,1,.185.675A1.071,1.071,0,0,1,7,8.559a1.622,1.622,0,0,1-.58.193A6.262,6.262,0,0,1,5.4,8.816H.515v1.916H5.9q.595,0,1.031-.024c.289-.016.543-.039.763-.072a3.425,3.425,0,0,0,.572-.129A1.831,1.831,0,0,0,8.7,10.3a2.694,2.694,0,0,0,1-1.126,3.541,3.541,0,0,0,.371-1.609,4.134,4.134,0,0,0-.217-1.335,2.575,2.575,0,0,0-.585-1.014" transform="translate(0 0)" fill="#fff"/></g></svg>