<svg xmlns="http://www.w3.org/2000/svg" xmlns:xlink="http://www.w3.org/1999/xlink" width="18" height="17.374" viewBox="0 0 18 17.374"><defs><clipPath id="a"><rect width="18" height="17.374" fill="#fff"/></clipPath></defs><g clip-path="url(#a)"><path d="M17.108,6.4a2.473,2.473,0,0,0-1.6-.6H11.622V2.994A2.94,2.94,0,0,0,10.6.465,3.212,3.212,0,0,0,7.977.147a.444.444,0,0,0-.311.421V3.707A3.1,3.1,0,0,1,6.214,6.291,5.737,5.737,0,0,1,4.68,7.06l-.107.026a.912.912,0,0,0-.787-.451H.913A.915.915,0,0,0,0,7.548v8.443a.915.915,0,0,0,.913.913h2.88a.917.917,0,0,0,.7-.329,2.512,2.512,0,0,0,1.826.8H14a2.69,2.69,0,0,0,2.972-2.44l.994-6.17A2.6,2.6,0,0,0,17.108,6.4M3.815,15.991a.025.025,0,0,1-.026.026H.913a.025.025,0,0,1-.026-.026V7.548a.025.025,0,0,1,.026-.026h2.88a.025.025,0,0,1,.026.026v8.443ZM17.086,8.624,16.1,14.8a.04.04,0,0,1,0,.019A1.819,1.819,0,0,1,14,16.49H6.318a1.626,1.626,0,0,1-1.593-1.364.594.594,0,0,0-.019-.078V7.966L4.9,7.922c.007,0,.011,0,.019,0a6.412,6.412,0,0,0,1.8-.887A4,4,0,0,0,8.558,3.707V.924a2.06,2.06,0,0,1,1.519.259,2.135,2.135,0,0,1,.658,1.811V6.24a.445.445,0,0,0,.444.444h4.329a1.578,1.578,0,0,1,1.024.388,1.69,1.69,0,0,1,.555,1.553" transform="translate(0 0)" fill="#fff"/></g></svg>