<svg xmlns="http://www.w3.org/2000/svg" xmlns:xlink="http://www.w3.org/1999/xlink" width="20.416" height="20.416" viewBox="0 0 20.416 20.416"><defs><clipPath id="a"><rect width="20.416" height="20.416" fill="none"/></clipPath></defs><g clip-path="url(#a)"><path d="M10.967,20.871a9.9,9.9,0,1,1,9.9-9.9,9.915,9.915,0,0,1-9.9,9.9m0-19.521a9.617,9.617,0,1,0,9.617,9.617A9.628,9.628,0,0,0,10.967,1.35" transform="translate(-0.759 -0.759)" fill="#fff"/><path d="M10.208,20.416A10.208,10.208,0,1,1,20.416,10.208,10.219,10.219,0,0,1,10.208,20.416m0-19.521a9.313,9.313,0,1,0,9.313,9.313A9.324,9.324,0,0,0,10.208.895" fill="#fff"/><rect width="10.023" height="1.925" transform="translate(5.196 6.914)" fill="#fff"/><rect width="10.023" height="1.925" transform="translate(5.196 11.577)" fill="#fff"/></g></svg>