<svg xmlns="http://www.w3.org/2000/svg" xmlns:xlink="http://www.w3.org/1999/xlink" width="26.808" height="26.805" viewBox="0 0 26.808 26.805"><defs><clipPath id="a"><rect width="26.808" height="26.805" fill="#fff"/></clipPath></defs><g transform="translate(-14.905 -40.518)"><g transform="translate(14.905 40.518)"><g transform="translate(0 0)" clip-path="url(#a)"><path d="M13.4,26.8a13.4,13.4,0,1,1,13.4-13.4A13.418,13.418,0,0,1,13.4,26.8m0-25.395A11.992,11.992,0,1,0,25.4,13.4,12.005,12.005,0,0,0,13.4,1.41" transform="translate(0 0)" fill="#fff"/><path d="M11.778,6.757a4.27,4.27,0,1,1-4.27-4.27,4.27,4.27,0,0,1,4.27,4.27" transform="translate(5.895 4.527)" fill="#fff"/><path d="M13.781,5.7H5.106a2.929,2.929,0,0,0-2.93,2.93v1.72a10.8,10.8,0,0,0,14.535,0V8.631a2.929,2.929,0,0,0-2.93-2.93" transform="translate(3.961 10.377)" fill="#fff"/></g></g></g></svg>