<svg xmlns="http://www.w3.org/2000/svg" xmlns:xlink="http://www.w3.org/1999/xlink" width="55.437" height="70.247" viewBox="0 0 55.437 70.247"><defs><clipPath id="a"><rect width="55.437" height="70.247" fill="none"/></clipPath></defs><g clip-path="url(#a)"><path d="M55.437,6.467a35.123,35.123,0,1,0,0,57.313Z" fill="#323234"/><path d="M41.009,34.3H47.95l11.062,26.17H51.291l-1.856-4.677H39.375L37.52,60.471H29.984Zm6.311,15.887-2.9-7.35-2.933,7.35Z" transform="translate(-19.836 -22.692)" fill="#fff"/><rect width="7.201" height="25.984" transform="translate(41.884 11.794)" fill="#fff"/><path d="M25.483,127.011v-.035a6.305,6.305,0,0,1,6.467-6.4,6.054,6.054,0,0,1,5.219,2.548L34.6,125.113a3.314,3.314,0,0,0-2.689-1.441,3.058,3.058,0,0,0-2.935,3.269v.035a3.043,3.043,0,0,0,2.935,3.286,3.383,3.383,0,0,0,2.777-1.494l2.566,1.828a6.216,6.216,0,0,1-5.43,2.777,6.246,6.246,0,0,1-6.344-6.362" transform="translate(-16.859 -79.77)" fill="#fff"/><path d="M64.058,119.749H67.4v4.622a3.5,3.5,0,0,1,2.847-1.512c2.039,0,3.234,1.319,3.234,3.5v6.221H70.156v-5.149c0-1.054-.527-1.617-1.353-1.617s-1.406.562-1.406,1.617v5.149H64.058Z" transform="translate(-42.378 -79.221)" fill="#fff"/><path d="M95.624,136.072v-.035c0-1.986,1.494-2.987,3.726-2.987a6.736,6.736,0,0,1,2.284.369v-.158c0-1-.615-1.564-1.9-1.564a6.847,6.847,0,0,0-2.636.527l-.685-2.337a9.553,9.553,0,0,1,3.849-.738,4.884,4.884,0,0,1,3.62,1.16,3.972,3.972,0,0,1,1.019,3.023V138.8h-3.286v-1a3.663,3.663,0,0,1-2.812,1.213,2.882,2.882,0,0,1-3.181-2.935m6.045-.721v-.439a3.672,3.672,0,0,0-1.318-.246c-.984,0-1.529.457-1.529,1.177v.035A1.047,1.047,0,0,0,100,136.916a1.524,1.524,0,0,0,1.67-1.564" transform="translate(-63.261 -85.439)" fill="#fff"/><path d="M127.383,131.412v-3.884h-1.125v-2.671h1.125v-2.408H130.7v2.408h2.214v2.671H130.7v3.234c0,.685.3.949.914.949a2.924,2.924,0,0,0,1.265-.316v2.6a4.808,4.808,0,0,1-2.32.563c-2.021,0-3.181-.879-3.181-3.146" transform="translate(-83.527 -81.007)" fill="#fff"/></g></svg>